<svg width="540" height="305" viewBox="0 0 540 305" fill="none" xmlns="http://www.w3.org/2000/svg">
<g clip-path="url(#clip0_56_18431)">
<g opacity="0.33">
<path d="M30.5 147L49 128.5L67.5 147L49 165.5L30.5 147Z" stroke="white" stroke-width="2"/>
<path d="M73.5 196C73.5 182.469 84.469 171.5 98 171.5" stroke="white" stroke-width="2"/>
<path d="M24.5 196C24.5 182.469 13.531 171.5 0 171.5" stroke="white" stroke-width="2"/>
<path d="M98 122.5C84.469 122.5 73.5 111.531 73.5 98" stroke="white" stroke-width="2"/>
<path d="M24.5 98C24.5 111.531 13.531 122.5 0 122.5" stroke="white" stroke-width="2"/>
<path d="M98 318.5C84.469 318.5 73.5 307.531 73.5 294" stroke="white" stroke-width="2"/>
<path d="M24.5 294C24.5 307.531 13.531 318.5 0 318.5" stroke="white" stroke-width="2"/>
<path d="M30.5 263.5L49 245L67.5 263.5L49 282L30.5 263.5Z" stroke="white" stroke-width="2"/>
<path d="M12 245L30.5 226.5L49 245L30.5 263.5L12 245Z" stroke="white" stroke-width="2"/>
<path d="M30.5 226.5L49 208L67.5 226.5L49 245L30.5 226.5Z" stroke="white" stroke-width="2"/>
<path d="M49 245L67.5 226.5L86 245L67.5 263.5L49 245Z" stroke="white" stroke-width="2"/>
<path d="M73.5 294C73.5 280.469 84.469 269.5 98 269.5" stroke="white" stroke-width="2"/>
<path d="M24.5 294C24.5 280.469 13.531 269.5 0 269.5" stroke="white" stroke-width="2"/>
<path d="M98 220.5C84.469 220.5 73.5 209.531 73.5 196" stroke="white" stroke-width="2"/>
<path d="M24.5 196C24.5 209.531 13.531 220.5 0 220.5" stroke="white" stroke-width="2"/>
<path d="M73.5 98C73.5 84.469 84.469 73.5 98 73.5" stroke="white" stroke-width="2"/>
<path d="M24.5 98C24.5 84.469 13.531 73.5 0 73.5" stroke="white" stroke-width="2"/>
<path d="M98 24.5C84.469 24.5 73.5 13.531 73.5 0" stroke="white" stroke-width="2"/>
<path d="M24.5 0C24.5 13.531 13.531 24.5 0 24.5" stroke="white" stroke-width="2"/>
<circle cx="49" cy="49" r="24.5" stroke="white" stroke-width="2"/>
<path d="M422.5 147L441 128.5L459.5 147L441 165.5L422.5 147Z" stroke="white" stroke-width="2"/>
<path d="M465.5 196C465.5 182.469 476.469 171.5 490 171.5" stroke="white" stroke-width="2"/>
<path d="M416.5 196C416.5 182.469 405.531 171.5 392 171.5" stroke="white" stroke-width="2"/>
<path d="M490 122.5C476.469 122.5 465.5 111.531 465.5 98" stroke="white" stroke-width="2"/>
<path d="M416.5 98C416.5 111.531 405.531 122.5 392 122.5" stroke="white" stroke-width="2"/>
<path d="M490 318.5C476.469 318.5 465.5 307.531 465.5 294" stroke="white" stroke-width="2"/>
<path d="M416.5 294C416.5 307.531 405.531 318.5 392 318.5" stroke="white" stroke-width="2"/>
<path d="M422.5 263.5L441 245L459.5 263.5L441 282L422.5 263.5Z" stroke="white" stroke-width="2"/>
<path d="M404 245L422.5 226.5L441 245L422.5 263.5L404 245Z" stroke="white" stroke-width="2"/>
<path d="M422.5 226.5L441 208L459.5 226.5L441 245L422.5 226.5Z" stroke="white" stroke-width="2"/>
<path d="M441 245L459.5 226.5L478 245L459.5 263.5L441 245Z" stroke="white" stroke-width="2"/>
<path d="M465.5 294C465.5 280.469 476.469 269.5 490 269.5" stroke="white" stroke-width="2"/>
<path d="M416.5 294C416.5 280.469 405.531 269.5 392 269.5" stroke="white" stroke-width="2"/>
<path d="M490 220.5C476.469 220.5 465.5 209.531 465.5 196" stroke="white" stroke-width="2"/>
<path d="M416.5 196C416.5 209.531 405.531 220.5 392 220.5" stroke="white" stroke-width="2"/>
<path d="M465.5 98C465.5 84.469 476.469 73.5 490 73.5" stroke="white" stroke-width="2"/>
<path d="M416.5 98C416.5 84.469 405.531 73.5 392 73.5" stroke="white" stroke-width="2"/>
<path d="M490 24.5C476.469 24.5 465.5 13.531 465.5 0" stroke="white" stroke-width="2"/>
<path d="M416.5 0C416.5 13.531 405.531 24.5 392 24.5" stroke="white" stroke-width="2"/>
<circle cx="441" cy="49" r="24.5" stroke="white" stroke-width="2"/>
<path d="M226.5 147L245 128.5L263.5 147L245 165.5L226.5 147Z" stroke="white" stroke-width="2"/>
<path d="M269.5 196C269.5 182.469 280.469 171.5 294 171.5" stroke="white" stroke-width="2"/>
<path d="M220.5 196C220.5 182.469 209.531 171.5 196 171.5" stroke="white" stroke-width="2"/>
<path d="M294 122.5C280.469 122.5 269.5 111.531 269.5 98" stroke="white" stroke-width="2"/>
<path d="M220.5 98C220.5 111.531 209.531 122.5 196 122.5" stroke="white" stroke-width="2"/>
<path d="M294 318.5C280.469 318.5 269.5 307.531 269.5 294" stroke="white" stroke-width="2"/>
<path d="M220.5 294C220.5 307.531 209.531 318.5 196 318.5" stroke="white" stroke-width="2"/>
<path d="M226.5 263.5L245 245L263.5 263.5L245 282L226.5 263.5Z" stroke="white" stroke-width="2"/>
<path d="M208 245L226.5 226.5L245 245L226.5 263.5L208 245Z" stroke="white" stroke-width="2"/>
<path d="M226.5 226.5L245 208L263.5 226.5L245 245L226.5 226.5Z" stroke="white" stroke-width="2"/>
<path d="M245 245L263.5 226.5L282 245L263.5 263.5L245 245Z" stroke="white" stroke-width="2"/>
<path d="M269.5 294C269.5 280.469 280.469 269.5 294 269.5" stroke="white" stroke-width="2"/>
<path d="M220.5 294C220.5 280.469 209.531 269.5 196 269.5" stroke="white" stroke-width="2"/>
<path d="M294 220.5C280.469 220.5 269.5 209.531 269.5 196" stroke="white" stroke-width="2"/>
<path d="M220.5 196C220.5 209.531 209.531 220.5 196 220.5" stroke="white" stroke-width="2"/>
<path d="M269.5 98C269.5 84.469 280.469 73.5 294 73.5" stroke="white" stroke-width="2"/>
<path d="M220.5 98C220.5 84.469 209.531 73.5 196 73.5" stroke="white" stroke-width="2"/>
<path d="M294 24.5C280.469 24.5 269.5 13.531 269.5 0" stroke="white" stroke-width="2"/>
<path d="M220.5 0C220.5 13.531 209.531 24.5 196 24.5" stroke="white" stroke-width="2"/>
<circle cx="245" cy="49" r="24.5" stroke="white" stroke-width="2"/>
<path d="M165.5 49L147 67.5L128.5 49L147 30.5L165.5 49Z" stroke="white" stroke-width="2"/>
<path d="M122.5 0C122.5 13.531 111.531 24.5 98 24.5" stroke="white" stroke-width="2"/>
<path d="M171.5 -2.14186e-06C171.5 13.531 182.469 24.5 196 24.5" stroke="white" stroke-width="2"/>
<path d="M98 73.5C111.531 73.5 122.5 84.469 122.5 98" stroke="white" stroke-width="2"/>
<path d="M171.5 98C171.5 84.469 182.469 73.5 196 73.5" stroke="white" stroke-width="2"/>
<path d="M122.5 294C122.5 307.531 111.531 318.5 98 318.5" stroke="white" stroke-width="2"/>
<path d="M171.5 294C171.5 307.531 182.469 318.5 196 318.5" stroke="white" stroke-width="2"/>
<path d="M122.5 196C122.5 209.531 111.531 220.5 98 220.5" stroke="white" stroke-width="2"/>
<path d="M171.5 196C171.5 209.531 182.469 220.5 196 220.5" stroke="white" stroke-width="2"/>
<path d="M98 269.5C111.531 269.5 122.5 280.469 122.5 294" stroke="white" stroke-width="2"/>
<path d="M171.5 294C171.5 280.469 182.469 269.5 196 269.5" stroke="white" stroke-width="2"/>
<path d="M147 269.5C147 255.969 157.969 245 171.5 245" stroke="white" stroke-width="2" stroke-linecap="round"/>
<path d="M122.5 245C136.031 245 147 255.969 147 269.5" stroke="white" stroke-width="2" stroke-linecap="round"/>
<path d="M147 220.5C147 234.031 157.969 245 171.5 245" stroke="white" stroke-width="2" stroke-linecap="round"/>
<path d="M147 220.5C147 234.031 136.031 245 122.5 245" stroke="white" stroke-width="2" stroke-linecap="round"/>
<path d="M122.5 98C122.5 111.531 111.531 122.5 98 122.5" stroke="white" stroke-width="2"/>
<path d="M171.5 98C171.5 111.531 182.469 122.5 196 122.5" stroke="white" stroke-width="2"/>
<path d="M98 171.5C111.531 171.5 122.5 182.469 122.5 196" stroke="white" stroke-width="2"/>
<path d="M171.5 196C171.5 182.469 182.469 171.5 196 171.5" stroke="white" stroke-width="2"/>
<circle cx="147" cy="147" r="24.5" transform="rotate(-180 147 147)" stroke="white" stroke-width="2"/>
<path d="M557.5 49L539 67.5L520.5 49L539 30.5L557.5 49Z" stroke="white" stroke-width="2"/>
<path d="M514.5 0C514.5 13.531 503.531 24.5 490 24.5" stroke="white" stroke-width="2"/>
<path d="M490 73.5C503.531 73.5 514.5 84.469 514.5 98" stroke="white" stroke-width="2"/>
<path d="M514.5 294C514.5 307.531 503.531 318.5 490 318.5" stroke="white" stroke-width="2"/>
<path d="M514.5 196C514.5 209.531 503.531 220.5 490 220.5" stroke="white" stroke-width="2"/>
<path d="M490 269.5C503.531 269.5 514.5 280.469 514.5 294" stroke="white" stroke-width="2"/>
<path d="M539 269.5C539 255.969 549.969 245 563.5 245" stroke="white" stroke-width="2" stroke-linecap="round"/>
<path d="M514.5 245C528.031 245 539 255.969 539 269.5" stroke="white" stroke-width="2" stroke-linecap="round"/>
<path d="M539 220.5C539 234.031 549.969 245 563.5 245" stroke="white" stroke-width="2" stroke-linecap="round"/>
<path d="M539 220.5C539 234.031 528.031 245 514.5 245" stroke="white" stroke-width="2" stroke-linecap="round"/>
<path d="M514.5 98C514.5 111.531 503.531 122.5 490 122.5" stroke="white" stroke-width="2"/>
<path d="M490 171.5C503.531 171.5 514.5 182.469 514.5 196" stroke="white" stroke-width="2"/>
<circle cx="539" cy="147" r="24.5" transform="rotate(-180 539 147)" stroke="white" stroke-width="2"/>
<path d="M361.5 49L343 67.5L324.5 49L343 30.5L361.5 49Z" stroke="white" stroke-width="2"/>
<path d="M318.5 0C318.5 13.531 307.531 24.5 294 24.5" stroke="white" stroke-width="2"/>
<path d="M367.5 -2.14186e-06C367.5 13.531 378.469 24.5 392 24.5" stroke="white" stroke-width="2"/>
<path d="M294 73.5C307.531 73.5 318.5 84.469 318.5 98" stroke="white" stroke-width="2"/>
<path d="M367.5 98C367.5 84.469 378.469 73.5 392 73.5" stroke="white" stroke-width="2"/>
<path d="M318.5 294C318.5 307.531 307.531 318.5 294 318.5" stroke="white" stroke-width="2"/>
<path d="M367.5 294C367.5 307.531 378.469 318.5 392 318.5" stroke="white" stroke-width="2"/>
<path d="M318.5 196C318.5 209.531 307.531 220.5 294 220.5" stroke="white" stroke-width="2"/>
<path d="M367.5 196C367.5 209.531 378.469 220.5 392 220.5" stroke="white" stroke-width="2"/>
<path d="M294 269.5C307.531 269.5 318.5 280.469 318.5 294" stroke="white" stroke-width="2"/>
<path d="M367.5 294C367.5 280.469 378.469 269.5 392 269.5" stroke="white" stroke-width="2"/>
<path d="M343 269.5C343 255.969 353.969 245 367.5 245" stroke="white" stroke-width="2" stroke-linecap="round"/>
<path d="M318.5 245C332.031 245 343 255.969 343 269.5" stroke="white" stroke-width="2" stroke-linecap="round"/>
<path d="M343 220.5C343 234.031 353.969 245 367.5 245" stroke="white" stroke-width="2" stroke-linecap="round"/>
<path d="M343 220.5C343 234.031 332.031 245 318.5 245" stroke="white" stroke-width="2" stroke-linecap="round"/>
<path d="M318.5 98C318.5 111.531 307.531 122.5 294 122.5" stroke="white" stroke-width="2"/>
<path d="M367.5 98C367.5 111.531 378.469 122.5 392 122.5" stroke="white" stroke-width="2"/>
<path d="M294 171.5C307.531 171.5 318.5 182.469 318.5 196" stroke="white" stroke-width="2"/>
<path d="M367.5 196C367.5 182.469 378.469 171.5 392 171.5" stroke="white" stroke-width="2"/>
<circle cx="343" cy="147" r="24.5" transform="rotate(-180 343 147)" stroke="white" stroke-width="2"/>
</g>
</g>
<defs>
<clipPath id="clip0_56_18431">
<rect width="540" height="305" fill="white"/>
</clipPath>
</defs>
</svg>
