<svg width="540" height="305" viewBox="0 0 540 305" fill="none" xmlns="http://www.w3.org/2000/svg">
<g clip-path="url(#clip0_56_12860)">
<g opacity="0.25">
<g clip-path="url(#clip1_56_12860)">
<path d="M74.5 74.5C88.031 74.5 99 85.469 99 99" stroke="white" stroke-width="2" stroke-linecap="square"/>
<path d="M98.5 99C84.969 99 74 88.031 74 74.5" stroke="white" stroke-width="2" stroke-linecap="square"/>
<path d="M74.5 25.5C74.5 11.969 85.469 0.999999 99 1" stroke="white" stroke-width="2" stroke-linecap="square"/>
<path d="M99 1.5C99 15.031 88.031 26 74.5 26" stroke="white" stroke-width="2" stroke-linecap="square"/>
<path d="M25.5 74.5C11.969 74.5 0.999998 85.469 1 99" stroke="white" stroke-width="2" stroke-linecap="square"/>
<path d="M1.5 99C15.031 99 26 88.031 26 74.5" stroke="white" stroke-width="2" stroke-linecap="square"/>
<path d="M25.5 25.5C25.5 11.969 14.531 0.999999 0.999998 1" stroke="white" stroke-width="2" stroke-linecap="square"/>
<path d="M0.999998 1.5C0.999999 15.031 11.969 26 25.5 26" stroke="white" stroke-width="2" stroke-linecap="square"/>
<path d="M35.8578 68.5021L50 54.36L64.1421 68.5021L50 82.6443L35.8578 68.5021Z" stroke="white" stroke-width="2"/>
<path d="M17.36 50.0021L31.5021 35.86L45.6443 50.0021L31.5021 64.1443L17.36 50.0021Z" stroke="white" stroke-width="2"/>
<path d="M54.36 50.0021L68.5021 35.86L82.6443 50.0021L68.5021 64.1443L54.36 50.0021Z" stroke="white" stroke-width="2"/>
<path d="M35.8578 31.5021L50 17.36L64.1421 31.5021L50 45.6443L35.8578 31.5021Z" stroke="white" stroke-width="2"/>
</g>
<g clip-path="url(#clip2_56_12860)">
<path d="M474.5 74.5C488.031 74.5 499 85.469 499 99" stroke="white" stroke-width="2" stroke-linecap="square"/>
<path d="M498.5 99C484.969 99 474 88.031 474 74.5" stroke="white" stroke-width="2" stroke-linecap="square"/>
<path d="M474.5 25.5C474.5 11.969 485.469 0.999999 499 1" stroke="white" stroke-width="2" stroke-linecap="square"/>
<path d="M499 1.5C499 15.031 488.031 26 474.5 26" stroke="white" stroke-width="2" stroke-linecap="square"/>
<path d="M425.5 74.5C411.969 74.5 401 85.469 401 99" stroke="white" stroke-width="2" stroke-linecap="square"/>
<path d="M401.5 99C415.031 99 426 88.031 426 74.5" stroke="white" stroke-width="2" stroke-linecap="square"/>
<path d="M425.5 25.5C425.5 11.969 414.531 0.999999 401 1" stroke="white" stroke-width="2" stroke-linecap="square"/>
<path d="M401 1.5C401 15.031 411.969 26 425.5 26" stroke="white" stroke-width="2" stroke-linecap="square"/>
<path d="M435.858 68.5021L450 54.36L464.142 68.5021L450 82.6443L435.858 68.5021Z" stroke="white" stroke-width="2"/>
<path d="M417.36 50.0021L431.502 35.86L445.644 50.0021L431.502 64.1443L417.36 50.0021Z" stroke="white" stroke-width="2"/>
<path d="M454.36 50.0021L468.502 35.86L482.644 50.0021L468.502 64.1443L454.36 50.0021Z" stroke="white" stroke-width="2"/>
<path d="M435.858 31.5021L450 17.36L464.142 31.5021L450 45.6443L435.858 31.5021Z" stroke="white" stroke-width="2"/>
</g>
<g clip-path="url(#clip3_56_12860)">
<path d="M274.5 74.5C288.031 74.5 299 85.469 299 99" stroke="white" stroke-width="2" stroke-linecap="square"/>
<path d="M298.5 99C284.969 99 274 88.031 274 74.5" stroke="white" stroke-width="2" stroke-linecap="square"/>
<path d="M274.5 25.5C274.5 11.969 285.469 0.999999 299 1" stroke="white" stroke-width="2" stroke-linecap="square"/>
<path d="M299 1.5C299 15.031 288.031 26 274.5 26" stroke="white" stroke-width="2" stroke-linecap="square"/>
<path d="M225.5 74.5C211.969 74.5 201 85.469 201 99" stroke="white" stroke-width="2" stroke-linecap="square"/>
<path d="M201.5 99C215.031 99 226 88.031 226 74.5" stroke="white" stroke-width="2" stroke-linecap="square"/>
<path d="M225.5 25.5C225.5 11.969 214.531 0.999999 201 1" stroke="white" stroke-width="2" stroke-linecap="square"/>
<path d="M201 1.5C201 15.031 211.969 26 225.5 26" stroke="white" stroke-width="2" stroke-linecap="square"/>
<path d="M235.858 68.5021L250 54.36L264.142 68.5021L250 82.6443L235.858 68.5021Z" stroke="white" stroke-width="2"/>
<path d="M217.36 50.0021L231.502 35.86L245.644 50.0021L231.502 64.1443L217.36 50.0021Z" stroke="white" stroke-width="2"/>
<path d="M254.36 50.0021L268.502 35.86L282.644 50.0021L268.502 64.1443L254.36 50.0021Z" stroke="white" stroke-width="2"/>
<path d="M235.858 31.5021L250 17.36L264.142 31.5021L250 45.6443L235.858 31.5021Z" stroke="white" stroke-width="2"/>
</g>
<g clip-path="url(#clip4_56_12860)">
<path d="M174.5 74.5C188.031 74.5 199 85.469 199 99" stroke="white" stroke-width="2" stroke-linecap="square"/>
<path d="M198.5 99C184.969 99 174 88.031 174 74.5" stroke="white" stroke-width="2" stroke-linecap="square"/>
<path d="M174.5 25.5C174.5 11.969 185.469 0.999999 199 1" stroke="white" stroke-width="2" stroke-linecap="square"/>
<path d="M199 1.5C199 15.031 188.031 26 174.5 26" stroke="white" stroke-width="2" stroke-linecap="square"/>
<path d="M125.5 74.5C111.969 74.5 101 85.469 101 99" stroke="white" stroke-width="2" stroke-linecap="square"/>
<path d="M101.5 99C115.031 99 126 88.031 126 74.5" stroke="white" stroke-width="2" stroke-linecap="square"/>
<path d="M125.5 25.5C125.5 11.969 114.531 0.999999 101 1" stroke="white" stroke-width="2" stroke-linecap="square"/>
<path d="M101 1.5C101 15.031 111.969 26 125.5 26" stroke="white" stroke-width="2" stroke-linecap="square"/>
<path d="M135.858 68.5021L150 54.36L164.142 68.5021L150 82.6443L135.858 68.5021Z" stroke="white" stroke-width="2"/>
<path d="M117.36 50.0021L131.502 35.86L145.644 50.0021L131.502 64.1443L117.36 50.0021Z" stroke="white" stroke-width="2"/>
<path d="M154.36 50.0021L168.502 35.86L182.644 50.0021L168.502 64.1443L154.36 50.0021Z" stroke="white" stroke-width="2"/>
<path d="M135.858 31.5021L150 17.36L164.142 31.5021L150 45.6443L135.858 31.5021Z" stroke="white" stroke-width="2"/>
</g>
<g clip-path="url(#clip5_56_12860)">
<path d="M525.5 74.5C511.969 74.5 501 85.469 501 99" stroke="white" stroke-width="2" stroke-linecap="square"/>
<path d="M501.5 99C515.031 99 526 88.031 526 74.5" stroke="white" stroke-width="2" stroke-linecap="square"/>
<path d="M525.5 25.5C525.5 11.969 514.531 0.999999 501 1" stroke="white" stroke-width="2" stroke-linecap="square"/>
<path d="M501 1.5C501 15.031 511.969 26 525.5 26" stroke="white" stroke-width="2" stroke-linecap="square"/>
<path d="M535.858 68.5021L550 54.36L564.142 68.5021L550 82.6443L535.858 68.5021Z" stroke="white" stroke-width="2"/>
<path d="M517.36 50.0021L531.502 35.86L545.644 50.0021L531.502 64.1443L517.36 50.0021Z" stroke="white" stroke-width="2"/>
<path d="M535.858 31.5021L550 17.36L564.142 31.5021L550 45.6443L535.858 31.5021Z" stroke="white" stroke-width="2"/>
</g>
<g clip-path="url(#clip6_56_12860)">
<path d="M374.5 74.5C388.031 74.5 399 85.469 399 99" stroke="white" stroke-width="2" stroke-linecap="square"/>
<path d="M398.5 99C384.969 99 374 88.031 374 74.5" stroke="white" stroke-width="2" stroke-linecap="square"/>
<path d="M374.5 25.5C374.5 11.969 385.469 0.999999 399 1" stroke="white" stroke-width="2" stroke-linecap="square"/>
<path d="M399 1.5C399 15.031 388.031 26 374.5 26" stroke="white" stroke-width="2" stroke-linecap="square"/>
<path d="M325.5 74.5C311.969 74.5 301 85.469 301 99" stroke="white" stroke-width="2" stroke-linecap="square"/>
<path d="M301.5 99C315.031 99 326 88.031 326 74.5" stroke="white" stroke-width="2" stroke-linecap="square"/>
<path d="M325.5 25.5C325.5 11.969 314.531 0.999999 301 1" stroke="white" stroke-width="2" stroke-linecap="square"/>
<path d="M301 1.5C301 15.031 311.969 26 325.5 26" stroke="white" stroke-width="2" stroke-linecap="square"/>
<path d="M335.858 68.5021L350 54.36L364.142 68.5021L350 82.6443L335.858 68.5021Z" stroke="white" stroke-width="2"/>
<path d="M317.36 50.0021L331.502 35.86L345.644 50.0021L331.502 64.1443L317.36 50.0021Z" stroke="white" stroke-width="2"/>
<path d="M354.36 50.0021L368.502 35.86L382.644 50.0021L368.502 64.1443L354.36 50.0021Z" stroke="white" stroke-width="2"/>
<path d="M335.858 31.5021L350 17.36L364.142 31.5021L350 45.6443L335.858 31.5021Z" stroke="white" stroke-width="2"/>
</g>
<g clip-path="url(#clip7_56_12860)">
<path d="M74.5 274.5C88.031 274.5 99 285.469 99 299" stroke="white" stroke-width="2" stroke-linecap="square"/>
<path d="M98.5 299C84.969 299 74 288.031 74 274.5" stroke="white" stroke-width="2" stroke-linecap="square"/>
<path d="M74.5 225.5C74.5 211.969 85.469 201 99 201" stroke="white" stroke-width="2" stroke-linecap="square"/>
<path d="M99 201.5C99 215.031 88.031 226 74.5 226" stroke="white" stroke-width="2" stroke-linecap="square"/>
<path d="M25.5 274.5C11.969 274.5 0.999998 285.469 1 299" stroke="white" stroke-width="2" stroke-linecap="square"/>
<path d="M1.5 299C15.031 299 26 288.031 26 274.5" stroke="white" stroke-width="2" stroke-linecap="square"/>
<path d="M25.5 225.5C25.5 211.969 14.531 201 0.999998 201" stroke="white" stroke-width="2" stroke-linecap="square"/>
<path d="M0.999998 201.5C0.999999 215.031 11.969 226 25.5 226" stroke="white" stroke-width="2" stroke-linecap="square"/>
<path d="M35.8578 268.502L50 254.36L64.1421 268.502L50 282.644L35.8578 268.502Z" stroke="white" stroke-width="2"/>
<path d="M17.36 250.002L31.5021 235.86L45.6443 250.002L31.5021 264.144L17.36 250.002Z" stroke="white" stroke-width="2"/>
<path d="M54.36 250.002L68.5021 235.86L82.6443 250.002L68.5021 264.144L54.36 250.002Z" stroke="white" stroke-width="2"/>
<path d="M35.8578 231.502L50 217.36L64.1421 231.502L50 245.644L35.8578 231.502Z" stroke="white" stroke-width="2"/>
</g>
<g clip-path="url(#clip8_56_12860)">
<path d="M474.5 274.5C488.031 274.5 499 285.469 499 299" stroke="white" stroke-width="2" stroke-linecap="square"/>
<path d="M498.5 299C484.969 299 474 288.031 474 274.5" stroke="white" stroke-width="2" stroke-linecap="square"/>
<path d="M474.5 225.5C474.5 211.969 485.469 201 499 201" stroke="white" stroke-width="2" stroke-linecap="square"/>
<path d="M499 201.5C499 215.031 488.031 226 474.5 226" stroke="white" stroke-width="2" stroke-linecap="square"/>
<path d="M425.5 274.5C411.969 274.5 401 285.469 401 299" stroke="white" stroke-width="2" stroke-linecap="square"/>
<path d="M401.5 299C415.031 299 426 288.031 426 274.5" stroke="white" stroke-width="2" stroke-linecap="square"/>
<path d="M425.5 225.5C425.5 211.969 414.531 201 401 201" stroke="white" stroke-width="2" stroke-linecap="square"/>
<path d="M401 201.5C401 215.031 411.969 226 425.5 226" stroke="white" stroke-width="2" stroke-linecap="square"/>
<path d="M435.858 268.502L450 254.36L464.142 268.502L450 282.644L435.858 268.502Z" stroke="white" stroke-width="2"/>
<path d="M417.36 250.002L431.502 235.86L445.644 250.002L431.502 264.144L417.36 250.002Z" stroke="white" stroke-width="2"/>
<path d="M454.36 250.002L468.502 235.86L482.644 250.002L468.502 264.144L454.36 250.002Z" stroke="white" stroke-width="2"/>
<path d="M435.858 231.502L450 217.36L464.142 231.502L450 245.644L435.858 231.502Z" stroke="white" stroke-width="2"/>
</g>
<g clip-path="url(#clip9_56_12860)">
<path d="M274.5 274.5C288.031 274.5 299 285.469 299 299" stroke="white" stroke-width="2" stroke-linecap="square"/>
<path d="M298.5 299C284.969 299 274 288.031 274 274.5" stroke="white" stroke-width="2" stroke-linecap="square"/>
<path d="M274.5 225.5C274.5 211.969 285.469 201 299 201" stroke="white" stroke-width="2" stroke-linecap="square"/>
<path d="M299 201.5C299 215.031 288.031 226 274.5 226" stroke="white" stroke-width="2" stroke-linecap="square"/>
<path d="M225.5 274.5C211.969 274.5 201 285.469 201 299" stroke="white" stroke-width="2" stroke-linecap="square"/>
<path d="M201.5 299C215.031 299 226 288.031 226 274.5" stroke="white" stroke-width="2" stroke-linecap="square"/>
<path d="M225.5 225.5C225.5 211.969 214.531 201 201 201" stroke="white" stroke-width="2" stroke-linecap="square"/>
<path d="M201 201.5C201 215.031 211.969 226 225.5 226" stroke="white" stroke-width="2" stroke-linecap="square"/>
<path d="M235.858 268.502L250 254.36L264.142 268.502L250 282.644L235.858 268.502Z" stroke="white" stroke-width="2"/>
<path d="M217.36 250.002L231.502 235.86L245.644 250.002L231.502 264.144L217.36 250.002Z" stroke="white" stroke-width="2"/>
<path d="M254.36 250.002L268.502 235.86L282.644 250.002L268.502 264.144L254.36 250.002Z" stroke="white" stroke-width="2"/>
<path d="M235.858 231.502L250 217.36L264.142 231.502L250 245.644L235.858 231.502Z" stroke="white" stroke-width="2"/>
</g>
<g clip-path="url(#clip10_56_12860)">
<path d="M174.5 274.5C188.031 274.5 199 285.469 199 299" stroke="white" stroke-width="2" stroke-linecap="square"/>
<path d="M198.5 299C184.969 299 174 288.031 174 274.5" stroke="white" stroke-width="2" stroke-linecap="square"/>
<path d="M174.5 225.5C174.5 211.969 185.469 201 199 201" stroke="white" stroke-width="2" stroke-linecap="square"/>
<path d="M199 201.5C199 215.031 188.031 226 174.5 226" stroke="white" stroke-width="2" stroke-linecap="square"/>
<path d="M125.5 274.5C111.969 274.5 101 285.469 101 299" stroke="white" stroke-width="2" stroke-linecap="square"/>
<path d="M101.5 299C115.031 299 126 288.031 126 274.5" stroke="white" stroke-width="2" stroke-linecap="square"/>
<path d="M125.5 225.5C125.5 211.969 114.531 201 101 201" stroke="white" stroke-width="2" stroke-linecap="square"/>
<path d="M101 201.5C101 215.031 111.969 226 125.5 226" stroke="white" stroke-width="2" stroke-linecap="square"/>
<path d="M135.858 268.502L150 254.36L164.142 268.502L150 282.644L135.858 268.502Z" stroke="white" stroke-width="2"/>
<path d="M117.36 250.002L131.502 235.86L145.644 250.002L131.502 264.144L117.36 250.002Z" stroke="white" stroke-width="2"/>
<path d="M154.36 250.002L168.502 235.86L182.644 250.002L168.502 264.144L154.36 250.002Z" stroke="white" stroke-width="2"/>
<path d="M135.858 231.502L150 217.36L164.142 231.502L150 245.644L135.858 231.502Z" stroke="white" stroke-width="2"/>
</g>
<g clip-path="url(#clip11_56_12860)">
<path d="M525.5 274.5C511.969 274.5 501 285.469 501 299" stroke="white" stroke-width="2" stroke-linecap="square"/>
<path d="M501.5 299C515.031 299 526 288.031 526 274.5" stroke="white" stroke-width="2" stroke-linecap="square"/>
<path d="M525.5 225.5C525.5 211.969 514.531 201 501 201" stroke="white" stroke-width="2" stroke-linecap="square"/>
<path d="M501 201.5C501 215.031 511.969 226 525.5 226" stroke="white" stroke-width="2" stroke-linecap="square"/>
<path d="M535.858 268.502L550 254.36L564.142 268.502L550 282.644L535.858 268.502Z" stroke="white" stroke-width="2"/>
<path d="M517.36 250.002L531.502 235.86L545.644 250.002L531.502 264.144L517.36 250.002Z" stroke="white" stroke-width="2"/>
<path d="M535.858 231.502L550 217.36L564.142 231.502L550 245.644L535.858 231.502Z" stroke="white" stroke-width="2"/>
</g>
<g clip-path="url(#clip12_56_12860)">
<path d="M374.5 274.5C388.031 274.5 399 285.469 399 299" stroke="white" stroke-width="2" stroke-linecap="square"/>
<path d="M398.5 299C384.969 299 374 288.031 374 274.5" stroke="white" stroke-width="2" stroke-linecap="square"/>
<path d="M374.5 225.5C374.5 211.969 385.469 201 399 201" stroke="white" stroke-width="2" stroke-linecap="square"/>
<path d="M399 201.5C399 215.031 388.031 226 374.5 226" stroke="white" stroke-width="2" stroke-linecap="square"/>
<path d="M325.5 274.5C311.969 274.5 301 285.469 301 299" stroke="white" stroke-width="2" stroke-linecap="square"/>
<path d="M301.5 299C315.031 299 326 288.031 326 274.5" stroke="white" stroke-width="2" stroke-linecap="square"/>
<path d="M325.5 225.5C325.5 211.969 314.531 201 301 201" stroke="white" stroke-width="2" stroke-linecap="square"/>
<path d="M301 201.5C301 215.031 311.969 226 325.5 226" stroke="white" stroke-width="2" stroke-linecap="square"/>
<path d="M335.858 268.502L350 254.36L364.142 268.502L350 282.644L335.858 268.502Z" stroke="white" stroke-width="2"/>
<path d="M317.36 250.002L331.502 235.86L345.644 250.002L331.502 264.144L317.36 250.002Z" stroke="white" stroke-width="2"/>
<path d="M354.36 250.002L368.502 235.86L382.644 250.002L368.502 264.144L354.36 250.002Z" stroke="white" stroke-width="2"/>
<path d="M335.858 231.502L350 217.36L364.142 231.502L350 245.644L335.858 231.502Z" stroke="white" stroke-width="2"/>
</g>
<g clip-path="url(#clip13_56_12860)">
<path d="M74.5 174.5C88.031 174.5 99 185.469 99 199" stroke="white" stroke-width="2" stroke-linecap="square"/>
<path d="M98.5 199C84.969 199 74 188.031 74 174.5" stroke="white" stroke-width="2" stroke-linecap="square"/>
<path d="M74.5 125.5C74.5 111.969 85.469 101 99 101" stroke="white" stroke-width="2" stroke-linecap="square"/>
<path d="M99 101.5C99 115.031 88.031 126 74.5 126" stroke="white" stroke-width="2" stroke-linecap="square"/>
<path d="M25.5 174.5C11.969 174.5 0.999998 185.469 1 199" stroke="white" stroke-width="2" stroke-linecap="square"/>
<path d="M1.5 199C15.031 199 26 188.031 26 174.5" stroke="white" stroke-width="2" stroke-linecap="square"/>
<path d="M25.5 125.5C25.5 111.969 14.531 101 0.999998 101" stroke="white" stroke-width="2" stroke-linecap="square"/>
<path d="M0.999998 101.5C0.999999 115.031 11.969 126 25.5 126" stroke="white" stroke-width="2" stroke-linecap="square"/>
<path d="M35.8578 168.502L50 154.36L64.1421 168.502L50 182.644L35.8578 168.502Z" stroke="white" stroke-width="2"/>
<path d="M17.36 150.002L31.5021 135.86L45.6443 150.002L31.5021 164.144L17.36 150.002Z" stroke="white" stroke-width="2"/>
<path d="M54.36 150.002L68.5021 135.86L82.6443 150.002L68.5021 164.144L54.36 150.002Z" stroke="white" stroke-width="2"/>
<path d="M35.8578 131.502L50 117.36L64.1421 131.502L50 145.644L35.8578 131.502Z" stroke="white" stroke-width="2"/>
</g>
<g clip-path="url(#clip14_56_12860)">
<path d="M474.5 174.5C488.031 174.5 499 185.469 499 199" stroke="white" stroke-width="2" stroke-linecap="square"/>
<path d="M498.5 199C484.969 199 474 188.031 474 174.5" stroke="white" stroke-width="2" stroke-linecap="square"/>
<path d="M474.5 125.5C474.5 111.969 485.469 101 499 101" stroke="white" stroke-width="2" stroke-linecap="square"/>
<path d="M499 101.5C499 115.031 488.031 126 474.5 126" stroke="white" stroke-width="2" stroke-linecap="square"/>
<path d="M425.5 174.5C411.969 174.5 401 185.469 401 199" stroke="white" stroke-width="2" stroke-linecap="square"/>
<path d="M401.5 199C415.031 199 426 188.031 426 174.5" stroke="white" stroke-width="2" stroke-linecap="square"/>
<path d="M425.5 125.5C425.5 111.969 414.531 101 401 101" stroke="white" stroke-width="2" stroke-linecap="square"/>
<path d="M401 101.5C401 115.031 411.969 126 425.5 126" stroke="white" stroke-width="2" stroke-linecap="square"/>
<path d="M435.858 168.502L450 154.36L464.142 168.502L450 182.644L435.858 168.502Z" stroke="white" stroke-width="2"/>
<path d="M417.36 150.002L431.502 135.86L445.644 150.002L431.502 164.144L417.36 150.002Z" stroke="white" stroke-width="2"/>
<path d="M454.36 150.002L468.502 135.86L482.644 150.002L468.502 164.144L454.36 150.002Z" stroke="white" stroke-width="2"/>
<path d="M435.858 131.502L450 117.36L464.142 131.502L450 145.644L435.858 131.502Z" stroke="white" stroke-width="2"/>
</g>
<g clip-path="url(#clip15_56_12860)">
<path d="M274.5 174.5C288.031 174.5 299 185.469 299 199" stroke="white" stroke-width="2" stroke-linecap="square"/>
<path d="M298.5 199C284.969 199 274 188.031 274 174.5" stroke="white" stroke-width="2" stroke-linecap="square"/>
<path d="M274.5 125.5C274.5 111.969 285.469 101 299 101" stroke="white" stroke-width="2" stroke-linecap="square"/>
<path d="M299 101.5C299 115.031 288.031 126 274.5 126" stroke="white" stroke-width="2" stroke-linecap="square"/>
<path d="M225.5 174.5C211.969 174.5 201 185.469 201 199" stroke="white" stroke-width="2" stroke-linecap="square"/>
<path d="M201.5 199C215.031 199 226 188.031 226 174.5" stroke="white" stroke-width="2" stroke-linecap="square"/>
<path d="M225.5 125.5C225.5 111.969 214.531 101 201 101" stroke="white" stroke-width="2" stroke-linecap="square"/>
<path d="M201 101.5C201 115.031 211.969 126 225.5 126" stroke="white" stroke-width="2" stroke-linecap="square"/>
<path d="M235.858 168.502L250 154.36L264.142 168.502L250 182.644L235.858 168.502Z" stroke="white" stroke-width="2"/>
<path d="M217.36 150.002L231.502 135.86L245.644 150.002L231.502 164.144L217.36 150.002Z" stroke="white" stroke-width="2"/>
<path d="M254.36 150.002L268.502 135.86L282.644 150.002L268.502 164.144L254.36 150.002Z" stroke="white" stroke-width="2"/>
<path d="M235.858 131.502L250 117.36L264.142 131.502L250 145.644L235.858 131.502Z" stroke="white" stroke-width="2"/>
</g>
<g clip-path="url(#clip16_56_12860)">
<path d="M174.5 174.5C188.031 174.5 199 185.469 199 199" stroke="white" stroke-width="2" stroke-linecap="square"/>
<path d="M198.5 199C184.969 199 174 188.031 174 174.5" stroke="white" stroke-width="2" stroke-linecap="square"/>
<path d="M174.5 125.5C174.5 111.969 185.469 101 199 101" stroke="white" stroke-width="2" stroke-linecap="square"/>
<path d="M199 101.5C199 115.031 188.031 126 174.5 126" stroke="white" stroke-width="2" stroke-linecap="square"/>
<path d="M125.5 174.5C111.969 174.5 101 185.469 101 199" stroke="white" stroke-width="2" stroke-linecap="square"/>
<path d="M101.5 199C115.031 199 126 188.031 126 174.5" stroke="white" stroke-width="2" stroke-linecap="square"/>
<path d="M125.5 125.5C125.5 111.969 114.531 101 101 101" stroke="white" stroke-width="2" stroke-linecap="square"/>
<path d="M101 101.5C101 115.031 111.969 126 125.5 126" stroke="white" stroke-width="2" stroke-linecap="square"/>
<path d="M135.858 168.502L150 154.36L164.142 168.502L150 182.644L135.858 168.502Z" stroke="white" stroke-width="2"/>
<path d="M117.36 150.002L131.502 135.86L145.644 150.002L131.502 164.144L117.36 150.002Z" stroke="white" stroke-width="2"/>
<path d="M154.36 150.002L168.502 135.86L182.644 150.002L168.502 164.144L154.36 150.002Z" stroke="white" stroke-width="2"/>
<path d="M135.858 131.502L150 117.36L164.142 131.502L150 145.644L135.858 131.502Z" stroke="white" stroke-width="2"/>
</g>
<g clip-path="url(#clip17_56_12860)">
<path d="M525.5 174.5C511.969 174.5 501 185.469 501 199" stroke="white" stroke-width="2" stroke-linecap="square"/>
<path d="M501.5 199C515.031 199 526 188.031 526 174.5" stroke="white" stroke-width="2" stroke-linecap="square"/>
<path d="M525.5 125.5C525.5 111.969 514.531 101 501 101" stroke="white" stroke-width="2" stroke-linecap="square"/>
<path d="M501 101.5C501 115.031 511.969 126 525.5 126" stroke="white" stroke-width="2" stroke-linecap="square"/>
<path d="M535.858 168.502L550 154.36L564.142 168.502L550 182.644L535.858 168.502Z" stroke="white" stroke-width="2"/>
<path d="M517.36 150.002L531.502 135.86L545.644 150.002L531.502 164.144L517.36 150.002Z" stroke="white" stroke-width="2"/>
<path d="M535.858 131.502L550 117.36L564.142 131.502L550 145.644L535.858 131.502Z" stroke="white" stroke-width="2"/>
</g>
<g clip-path="url(#clip18_56_12860)">
<path d="M374.5 174.5C388.031 174.5 399 185.469 399 199" stroke="white" stroke-width="2" stroke-linecap="square"/>
<path d="M398.5 199C384.969 199 374 188.031 374 174.5" stroke="white" stroke-width="2" stroke-linecap="square"/>
<path d="M374.5 125.5C374.5 111.969 385.469 101 399 101" stroke="white" stroke-width="2" stroke-linecap="square"/>
<path d="M399 101.5C399 115.031 388.031 126 374.5 126" stroke="white" stroke-width="2" stroke-linecap="square"/>
<path d="M325.5 174.5C311.969 174.5 301 185.469 301 199" stroke="white" stroke-width="2" stroke-linecap="square"/>
<path d="M301.5 199C315.031 199 326 188.031 326 174.5" stroke="white" stroke-width="2" stroke-linecap="square"/>
<path d="M325.5 125.5C325.5 111.969 314.531 101 301 101" stroke="white" stroke-width="2" stroke-linecap="square"/>
<path d="M301 101.5C301 115.031 311.969 126 325.5 126" stroke="white" stroke-width="2" stroke-linecap="square"/>
<path d="M335.858 168.502L350 154.36L364.142 168.502L350 182.644L335.858 168.502Z" stroke="white" stroke-width="2"/>
<path d="M317.36 150.002L331.502 135.86L345.644 150.002L331.502 164.144L317.36 150.002Z" stroke="white" stroke-width="2"/>
<path d="M354.36 150.002L368.502 135.86L382.644 150.002L368.502 164.144L354.36 150.002Z" stroke="white" stroke-width="2"/>
<path d="M335.858 131.502L350 117.36L364.142 131.502L350 145.644L335.858 131.502Z" stroke="white" stroke-width="2"/>
</g>
<g clip-path="url(#clip19_56_12860)">
<path d="M74.5 325.5C74.5 311.969 85.469 301 99 301" stroke="white" stroke-width="2" stroke-linecap="square"/>
<path d="M99 301.5C99 315.031 88.031 326 74.5 326" stroke="white" stroke-width="2" stroke-linecap="square"/>
<path d="M25.5 325.5C25.5 311.969 14.531 301 0.999998 301" stroke="white" stroke-width="2" stroke-linecap="square"/>
<path d="M0.999998 301.5C0.999999 315.031 11.969 326 25.5 326" stroke="white" stroke-width="2" stroke-linecap="square"/>
</g>
<g clip-path="url(#clip20_56_12860)">
<path d="M474.5 325.5C474.5 311.969 485.469 301 499 301" stroke="white" stroke-width="2" stroke-linecap="square"/>
<path d="M499 301.5C499 315.031 488.031 326 474.5 326" stroke="white" stroke-width="2" stroke-linecap="square"/>
<path d="M425.5 325.5C425.5 311.969 414.531 301 401 301" stroke="white" stroke-width="2" stroke-linecap="square"/>
<path d="M401 301.5C401 315.031 411.969 326 425.5 326" stroke="white" stroke-width="2" stroke-linecap="square"/>
</g>
<g clip-path="url(#clip21_56_12860)">
<path d="M274.5 325.5C274.5 311.969 285.469 301 299 301" stroke="white" stroke-width="2" stroke-linecap="square"/>
<path d="M299 301.5C299 315.031 288.031 326 274.5 326" stroke="white" stroke-width="2" stroke-linecap="square"/>
<path d="M225.5 325.5C225.5 311.969 214.531 301 201 301" stroke="white" stroke-width="2" stroke-linecap="square"/>
<path d="M201 301.5C201 315.031 211.969 326 225.5 326" stroke="white" stroke-width="2" stroke-linecap="square"/>
</g>
<g clip-path="url(#clip22_56_12860)">
<path d="M174.5 325.5C174.5 311.969 185.469 301 199 301" stroke="white" stroke-width="2" stroke-linecap="square"/>
<path d="M199 301.5C199 315.031 188.031 326 174.5 326" stroke="white" stroke-width="2" stroke-linecap="square"/>
<path d="M125.5 325.5C125.5 311.969 114.531 301 101 301" stroke="white" stroke-width="2" stroke-linecap="square"/>
<path d="M101 301.5C101 315.031 111.969 326 125.5 326" stroke="white" stroke-width="2" stroke-linecap="square"/>
</g>
<g clip-path="url(#clip23_56_12860)">
<path d="M525.5 325.5C525.5 311.969 514.531 301 501 301" stroke="white" stroke-width="2" stroke-linecap="square"/>
<path d="M501 301.5C501 315.031 511.969 326 525.5 326" stroke="white" stroke-width="2" stroke-linecap="square"/>
</g>
<g clip-path="url(#clip24_56_12860)">
<path d="M374.5 325.5C374.5 311.969 385.469 301 399 301" stroke="white" stroke-width="2" stroke-linecap="square"/>
<path d="M399 301.5C399 315.031 388.031 326 374.5 326" stroke="white" stroke-width="2" stroke-linecap="square"/>
<path d="M325.5 325.5C325.5 311.969 314.531 301 301 301" stroke="white" stroke-width="2" stroke-linecap="square"/>
<path d="M301 301.5C301 315.031 311.969 326 325.5 326" stroke="white" stroke-width="2" stroke-linecap="square"/>
</g>
</g>
</g>
<defs>
<clipPath id="clip0_56_12860">
<rect width="540" height="305" fill="white"/>
</clipPath>
<clipPath id="clip1_56_12860">
<rect width="100" height="100" fill="white"/>
</clipPath>
<clipPath id="clip2_56_12860">
<rect width="100" height="100" fill="white" transform="translate(400)"/>
</clipPath>
<clipPath id="clip3_56_12860">
<rect width="100" height="100" fill="white" transform="translate(200)"/>
</clipPath>
<clipPath id="clip4_56_12860">
<rect width="100" height="100" fill="white" transform="translate(100)"/>
</clipPath>
<clipPath id="clip5_56_12860">
<rect width="100" height="100" fill="white" transform="translate(500)"/>
</clipPath>
<clipPath id="clip6_56_12860">
<rect width="100" height="100" fill="white" transform="translate(300)"/>
</clipPath>
<clipPath id="clip7_56_12860">
<rect width="100" height="100" fill="white" transform="translate(0 200)"/>
</clipPath>
<clipPath id="clip8_56_12860">
<rect width="100" height="100" fill="white" transform="translate(400 200)"/>
</clipPath>
<clipPath id="clip9_56_12860">
<rect width="100" height="100" fill="white" transform="translate(200 200)"/>
</clipPath>
<clipPath id="clip10_56_12860">
<rect width="100" height="100" fill="white" transform="translate(100 200)"/>
</clipPath>
<clipPath id="clip11_56_12860">
<rect width="100" height="100" fill="white" transform="translate(500 200)"/>
</clipPath>
<clipPath id="clip12_56_12860">
<rect width="100" height="100" fill="white" transform="translate(300 200)"/>
</clipPath>
<clipPath id="clip13_56_12860">
<rect width="100" height="100" fill="white" transform="translate(0 100)"/>
</clipPath>
<clipPath id="clip14_56_12860">
<rect width="100" height="100" fill="white" transform="translate(400 100)"/>
</clipPath>
<clipPath id="clip15_56_12860">
<rect width="100" height="100" fill="white" transform="translate(200 100)"/>
</clipPath>
<clipPath id="clip16_56_12860">
<rect width="100" height="100" fill="white" transform="translate(100 100)"/>
</clipPath>
<clipPath id="clip17_56_12860">
<rect width="100" height="100" fill="white" transform="translate(500 100)"/>
</clipPath>
<clipPath id="clip18_56_12860">
<rect width="100" height="100" fill="white" transform="translate(300 100)"/>
</clipPath>
<clipPath id="clip19_56_12860">
<rect width="100" height="100" fill="white" transform="translate(0 300)"/>
</clipPath>
<clipPath id="clip20_56_12860">
<rect width="100" height="100" fill="white" transform="translate(400 300)"/>
</clipPath>
<clipPath id="clip21_56_12860">
<rect width="100" height="100" fill="white" transform="translate(200 300)"/>
</clipPath>
<clipPath id="clip22_56_12860">
<rect width="100" height="100" fill="white" transform="translate(100 300)"/>
</clipPath>
<clipPath id="clip23_56_12860">
<rect width="100" height="100" fill="white" transform="translate(500 300)"/>
</clipPath>
<clipPath id="clip24_56_12860">
<rect width="100" height="100" fill="white" transform="translate(300 300)"/>
</clipPath>
</defs>
</svg>
