<svg width="2119" height="2171" viewBox="0 0 2119 2171" fill="none" xmlns="http://www.w3.org/2000/svg">
<rect width="2119" height="2171" rx="1048" fill="#0F172A"/>
<g filter="url(#filter0_b_112_199)">
<g filter="url(#filter1_b_112_199)">
<circle cx="1072" cy="1086" r="500" fill="white" fill-opacity="0.1"/>
<circle cx="1072" cy="1086" r="499.5" stroke="white" stroke-opacity="0.01"/>
</g>
<path d="M1038.28 744.217C1057.32 738.106 1074.59 736.617 1091.77 743.569C1098.65 746.352 1105.39 745.989 1111.82 743.291C1141.18 730.974 1179.44 747.605 1197.66 769.801C1223.33 801.06 1233.32 836.583 1236.62 872.842C1242.89 941.665 1235.26 1009.18 1195.91 1072.17C1179.1 1099.09 1157.88 1122.41 1121.17 1133.27C1106.79 1137.53 1108.03 1147.39 1108.02 1156.8C1107.97 1251.44 1107.97 1346.08 1107.88 1440.72C1107.87 1446.96 1108.1 1453.35 1106.67 1459.43C1104.57 1468.32 1097.63 1474.58 1085.84 1473.72C1075.54 1472.97 1069.45 1466.94 1068.31 1458.56C1067.55 1452.98 1067.83 1447.29 1067.83 1441.66C1067.79 1346.39 1067.34 1251.12 1068.19 1155.86C1068.33 1140.05 1062.61 1132.71 1043.44 1128.06C1011.46 1120.29 990.655 1100.06 974.055 1077.78C911.567 993.918 890.65 903.831 915.284 807.491C918.899 793.351 926.156 780.079 936.786 768.228C956.08 746.719 981.849 738.569 1013.86 744.172C1021.51 745.51 1028.79 747.519 1038.28 744.217ZM1201.29 826.634C1195.57 810.277 1188.59 794.234 1175.72 780.654C1150.64 754.215 1125.06 753.123 1095.94 776.709C1076.38 792.553 1064.06 811.982 1054.33 832.66C1026.43 891.948 1021.2 953.471 1030.04 1015.7C1033.92 1043.02 1044.4 1069.77 1064.27 1092.85C1087.78 1120.18 1117.54 1121.43 1144.98 1096.8C1156.95 1086.05 1167.17 1074.15 1174.43 1060.89C1215.27 986.315 1223.57 909.1 1201.29 826.634ZM930.871 877.154C932.88 961.863 957.583 1039.55 1034.5 1101.1C1031.3 1089.67 1024.59 1079.26 1020.44 1068.21C986.949 978.94 996.636 891.707 1040.66 806.328C1044.54 798.817 1050.01 792.483 1041.92 783.979C1013.52 754.137 971.922 756.435 950.476 789.578C933.433 815.918 930.705 844.496 930.871 877.154Z" fill="#7C3AED"/>
<path d="M1270.06 1161.08C1242.13 1251.89 1212.83 1340.75 1167.69 1425.5C1161.2 1437.7 1156.54 1451.8 1138.02 1458.58C1123.5 1448.68 1127.79 1435.7 1129.68 1424.04C1145.23 1328.14 1177.74 1235.55 1213.99 1143.72C1226.72 1111.46 1241.24 1079.73 1259.47 1049.28C1265.07 1039.92 1269.64 1023.1 1285.7 1027.45C1300.39 1031.42 1293.57 1047.37 1292.23 1058.05C1287.94 1092.26 1279.41 1125.94 1270.06 1161.08Z" fill="#7C3AED"/>
<path d="M1000.12 1412.43C963.536 1327.94 928.938 1244.54 921.113 1154.02C941.656 1155.12 944.753 1165.31 949.156 1173.17C979.864 1227.99 1000.36 1285.61 1018.93 1343.7C1028.78 1374.5 1036.38 1405.71 1041.27 1437.32C1042.41 1444.7 1044.39 1452.4 1032.77 1459.22C1014.94 1447.53 1009.74 1429.71 1000.12 1412.43Z" fill="#7C3AED"/>
<rect x="354.5" y="514.5" width="1411" height="1143" stroke="white" stroke-opacity="0.01"/>
</g>
<defs>
<filter id="filter0_b_112_199" x="314" y="474" width="1492" height="1224" filterUnits="userSpaceOnUse" color-interpolation-filters="sRGB">
<feFlood flood-opacity="0" result="BackgroundImageFix"/>
<feGaussianBlur in="BackgroundImageFix" stdDeviation="20"/>
<feComposite in2="SourceAlpha" operator="in" result="effect1_backgroundBlur_112_199"/>
<feBlend mode="normal" in="SourceGraphic" in2="effect1_backgroundBlur_112_199" result="shape"/>
</filter>
<filter id="filter1_b_112_199" x="532" y="546" width="1080" height="1080" filterUnits="userSpaceOnUse" color-interpolation-filters="sRGB">
<feFlood flood-opacity="0" result="BackgroundImageFix"/>
<feGaussianBlur in="BackgroundImageFix" stdDeviation="20"/>
<feComposite in2="SourceAlpha" operator="in" result="effect1_backgroundBlur_112_199"/>
<feBlend mode="normal" in="SourceGraphic" in2="effect1_backgroundBlur_112_199" result="shape"/>
</filter>
</defs>
</svg>
