<svg version="1.1" id="Layer_1" xmlns="http://www.w3.org/2000/svg" xmlns:xlink="http://www.w3.org/1999/xlink" x="0px" y="0px"
	 width="100%" viewBox="0 0 304 304" enable-background="new 0 0 304 304" xml:space="preserve">
<path fill="#7c3aed" opacity="1.000000" stroke="none" 
	d="
M147.324585,61.176666 
	C151.421921,59.552711 155.141129,59.156857 158.839447,61.004227 
	C160.320175,61.743858 161.772598,61.647514 163.157074,60.930576 
	C169.478134,57.657303 177.716125,62.076962 181.638855,67.975006 
	C187.163498,76.281639 189.316193,85.721237 190.026581,95.356483 
	C191.374969,113.645294 189.732101,131.586151 181.261978,148.325745 
	C177.642365,155.479248 173.073532,161.674622 165.169098,164.562424 
	C162.074219,165.693100 162.340515,168.312622 162.339447,170.813202 
	C162.328583,195.962143 162.328491,221.111099 162.308472,246.260025 
	C162.307144,247.920670 162.356781,249.617325 162.047989,251.233261 
	C161.596771,253.594635 160.102234,255.259125 157.562561,255.030136 
	C155.344696,254.830154 154.034210,253.228592 153.788559,251.001572 
	C153.624954,249.518433 153.686371,248.007980 153.685837,246.509720 
	C153.676971,221.194031 153.580765,195.877670 153.762512,170.563309 
	C153.792664,166.363983 152.562256,164.413361 148.435333,163.176239 
	C141.549484,161.112106 137.070251,155.735977 133.496277,149.815857 
	C120.042732,127.530777 115.539459,103.591415 120.842911,77.990585 
	C121.621292,74.233154 123.183624,70.706261 125.472420,67.556969 
	C129.626236,61.841488 135.174255,59.675697 142.066467,61.164471 
	C143.712830,61.520100 145.280838,62.053967 147.324585,61.176666 
M182.418564,83.077499 
	C181.188904,78.730888 179.686096,74.467636 176.913437,70.859070 
	C171.515137,63.833256 166.007095,63.543060 159.738205,69.810760 
	C155.527054,74.021111 152.874771,79.183914 150.779739,84.678932 
	C144.773087,100.433662 143.645782,116.782402 145.549622,133.319824 
	C146.385178,140.577789 148.641602,147.685913 152.919083,153.821381 
	C157.981598,161.082870 164.387787,161.413651 170.295532,154.868774 
	C172.872879,152.013474 175.073105,148.850891 176.636215,145.328278 
	C185.430099,125.510376 187.216888,104.991646 182.418564,83.077499 
M124.198830,96.502487 
	C124.631271,119.012512 129.949890,139.657196 146.510071,156.011688 
	C145.821350,152.976166 144.375473,150.208466 143.483047,147.272552 
	C136.272186,123.550499 138.357834,100.369751 147.836685,77.681671 
	C148.670578,75.685692 149.848480,74.002556 148.106369,71.742622 
	C141.993347,63.812592 133.037079,64.423195 128.419846,73.230576 
	C124.750412,80.230011 124.163132,87.824158 124.198830,96.502487 
z"/>
<path fill="#7c3aed" opacity="1.000000" stroke="none" 
	d="
M197.225616,171.951996 
	C191.212616,196.083572 184.904846,219.694916 175.185440,242.218002 
	C173.787186,245.458237 172.785095,249.204788 168.796600,251.008255 
	C165.671341,248.375732 166.595642,244.928345 167.002762,241.827682 
	C170.348831,216.344528 177.348511,191.741318 185.153625,167.337372 
	C187.895050,158.765854 191.019577,150.333084 194.945068,142.241730 
	C196.150909,139.756180 197.133835,135.285934 200.593063,136.440475 
	C203.755600,137.496048 202.287125,141.735916 201.999130,144.571640 
	C201.075592,153.664688 199.238358,162.614471 197.225616,171.951996 
z"/>
<path fill="#7c3aed" opacity="1.000000" stroke="none" 
	d="
M139.108826,238.743103 
	C131.231537,216.292374 123.782738,194.130264 122.097931,170.076172 
	C126.520866,170.368164 127.187531,173.076492 128.135605,175.165253 
	C134.746918,189.730896 139.158859,205.042618 143.157104,220.478546 
	C145.277649,228.665268 146.915314,236.958328 147.967438,245.356598 
	C148.213181,247.318375 148.638153,249.365631 146.136642,251.176117 
	C142.297821,248.071365 141.179703,243.334854 139.108826,238.743103 
z"/>
</svg>